<svg xmlns="http://www.w3.org/2000/svg" viewBox="0 0 512 512">
  <defs>
    <linearGradient id="g" x1="0" y1="0" x2="1" y2="1">
      <stop offset="0" stop-color="#4361ee"/>
      <stop offset="1" stop-color="#16255f"/>
    </linearGradient>
  </defs>
  <rect width="512" height="512" fill="#030409"/>
  <rect x="40" y="40" width="432" height="432" rx="104" fill="url(#g)"/>
  <g transform="translate(146, 132) scale(2.1)">
    <g fill="none" stroke="#fff" stroke-width="10" stroke-linecap="round" stroke-linejoin="round">
      <path d="M62 12C40 12 24 30 22 54c-2 22-2 36 6 48"/>
      <path d="M58 21c9 1 14 6 18 13 3 6 9 10 9 17 0 8-6 13-13 14"/>
      <path d="M48 42c5-7 11-10 18-9"/>
      <path d="M74 65c-9-2-17 1-23 7-6 6-9 14-9 24"/>
    </g>
    <g fill="#fff">
      <path d="M34 96h30a3 3 0 0 1 3 3v6a3 3 0 0 1-3 3H34a3 3 0 0 1-3-3v-6a3 3 0 0 1 3-3z"/>
      <path d="M26 112h54a4 4 0 0 1 4 4v5H22v-5a4 4 0 0 1 4-4z"/>
    </g>
  </g>
</svg>
